<svg width="23" height="23" viewBox="0 0 23 23" fill="none" xmlns="http://www.w3.org/2000/svg">
<path d="M15.3333 20.125V4.79167C15.3333 4.28334 15.1314 3.79582 14.7719 3.43638C14.4125 3.07693 13.925 2.875 13.4166 2.875H9.58329C9.07496 2.875 8.58745 3.07693 8.22801 3.43638C7.86856 3.79582 7.66663 4.28334 7.66663 4.79167V20.125M3.83329 6.70833H19.1666C20.2252 6.70833 21.0833 7.56645 21.0833 8.625V18.2083C21.0833 19.2669 20.2252 20.125 19.1666 20.125H3.83329C2.77475 20.125 1.91663 19.2669 1.91663 18.2083V8.625C1.91663 7.56645 2.77475 6.70833 3.83329 6.70833Z" stroke="#1E1E1E" stroke-width="2" stroke-linecap="round" stroke-linejoin="round"/>
</svg>
