<svg width="23" height="23" viewBox="0 0 23 23" fill="none" xmlns="http://www.w3.org/2000/svg">
<path d="M21.0833 11.5H15.3333L13.4166 14.375H9.58329L7.66663 11.5H1.91663M21.0833 11.5V17.25C21.0833 17.7584 20.8814 18.2459 20.5219 18.6053C20.1625 18.9648 19.675 19.1667 19.1666 19.1667H3.83329C3.32496 19.1667 2.83745 18.9648 2.478 18.6053C2.11856 18.2459 1.91663 17.7584 1.91663 17.25V11.5M21.0833 11.5L17.777 4.89712C17.6184 4.5778 17.3738 4.30906 17.0707 4.12114C16.7677 3.93322 16.4182 3.83356 16.0616 3.83337H6.93829C6.58171 3.83356 6.23225 3.93322 5.92921 4.12114C5.62617 4.30906 5.38155 4.5778 5.22288 4.89712L1.91663 11.5" stroke="#1E1E1E" stroke-width="2" stroke-linecap="round" stroke-linejoin="round"/>
</svg>
