<svg width="40" height="40" viewBox="0 0 40 40" fill="none" xmlns="http://www.w3.org/2000/svg">
<circle cx="20" cy="20" r="20" fill="#C8E6FF"/>
<path d="M28.6667 29.75V27.5833C28.6667 26.4341 28.2102 25.3319 27.3975 24.5192C26.5848 23.7065 25.4826 23.25 24.3334 23.25H15.6667C14.5174 23.25 13.4152 23.7065 12.6026 24.5192C11.7899 25.3319 11.3334 26.4341 11.3334 27.5833V29.75M24.3334 14.5833C24.3334 16.9766 22.3933 18.9167 20 18.9167C17.6068 18.9167 15.6667 16.9766 15.6667 14.5833C15.6667 12.1901 17.6068 10.25 20 10.25C22.3933 10.25 24.3334 12.1901 24.3334 14.5833Z" stroke="#1E1E1E" stroke-width="2" stroke-linecap="round" stroke-linejoin="round"/>
</svg>
